PathFileType	4	(X/Y/Z)	6_coords_data.trc
DataRate	CameraRate	NumFrames	NumMarkers	Units	OrigDataRate	OrigDataStartFrame	OrigNumFrames
30.0	30.0	8	21	m	30.0	58	77
Frame#	Time	THUMB_TIP	THUMB_IP	THUMB_MCP	THUMB_CMC	INDEX_TIP	INDEX_DIP	INDEX_PIP	INDEX_MCP	MIDDLE_TIP	MIDDLE_DIP	MIDDLE_PIP	MIDDLE_MCP	RING_TIP	RING_DIP	RING_PIP	RING_MCP	PINKY_TIP	PINKY_DIP	PINKY_PIP	PINKY_MCP	WRIST
X1	Y1	Z1	X2	Y2	Z2	X3	Y3	Z3	X4	Y4	Z4	X5	Y5	Z5	X6	Y6	Z6	X7	Y7	Z7	X8	Y8	Z8	X9	Y9	Z9	X10	Y10	Z10	X11	Y11	Z11	X12	Y12	Z12	X13	Y13	Z13	X14	Y14	Z14	X15	Y15	Z15	X16	Y16	Z16	X17	Y17	Z17	X18	Y18	Z18	X19	Y19	Z19	X20	Y20	Z20	X21	Y21	Z21
57	1.9	0.044236698150634766	-0.1293090057373047	1.013030029296875	0.03757649993896484	-0.1034209976196289	1.021989990234375	0.018280500411987304	-0.08514330291748047	1.0413599853515625	0.006878379821777344	-0.049312099456787106	1.0519599609375	0.02484469985961914	-0.05705220031738281	1.0133800048828125	0.03637639999389648	-0.05829790115356445	0.996041015625	0.027913700103759764	-0.06598639678955077	0.974447998046875	-0.008193590164184571	-0.06869249725341797	0.993219970703125	0.023109100341796876	-0.043606201171875	1.0168499755859375	0.035896400451660156	-0.04060120010375977	0.9994299926757813	0.026627500534057616	-0.042622501373291016	0.9711829833984374	-0.015076600074768066	-0.04543669891357422	0.98531298828125	0.017002700805664062	-0.027175500869750978	1.0217899780273438	0.03230070114135742	-0.023960100173950196	1.0045700073242188	0.02703380012512207	-0.020775100708007813	0.9772960205078125	-0.014062000274658202	-0.020719900131225585	0.9881220092773437	0.016706899642944337	-0.011076499938964843	1.0155999755859375	0.028672300338745117	-0.007060190200805664	1.0018699951171874	0.021772199630737305	-0.001458879947662353	0.9847379760742188	-0.008124640464782715	-7.931079715490301e-05	0.996906005859375	-0.02041819953918457	-0.022671600341796876	1.0691700439453125
58	1.9333333333333333	0.04395199966430664	-0.12843699645996093	1.0129000244140625	0.03731000137329102	-0.10265499877929687	1.0226400146484376	0.018231500625610353	-0.08484210205078126	1.0423199462890624	0.00730010986328125	-0.04905379867553711	1.052760009765625	0.03568780136108399	-0.05492649841308594	1.0103300170898437	0.041811500549316406	-0.058239498138427735	0.991218994140625	0.027964099884033203	-0.06672090148925781	0.9722139892578125	-0.006633470058441162	-0.068197998046875	0.994041015625	0.02982909965515137	-0.04209180068969726	1.0116799926757813	0.04085499954223633	-0.039949298858642575	0.9931079711914063	0.02639069938659668	-0.042910499572753905	0.9679760131835937	-0.014007599830627441	-0.04496599960327148	0.9858660278320313	0.02521579933166504	-0.026633699417114257	1.0151699829101561	0.03709199905395508	-0.023120899200439454	0.9993170166015625	0.026983900070190428	-0.02012269973754883	0.9735850219726563	-0.012788800239562989	-0.020149200439453126	0.9887659912109374	0.022433099746704103	-0.01002589988708496	1.0115	0.03174519920349121	-0.005023809909820556	0.9963740234375	0.02140439987182617	0.00038695099949836705	0.98197802734375	-0.006955719947814941	0.0006524080038070671	0.9974849853515625	-0.020399099349975587	-0.022010000228881835	1.0697099609375
59	1.9666666666666666	0.04465459823608398	-0.12714600372314452	1.0127100219726564	0.03776850128173828	-0.10165499877929687	1.0229199829101563	0.01845229911804199	-0.08442160034179688	1.042739990234375	0.00738720989227295	-0.04899789810180664	1.0533499755859375	0.05045299911499023	-0.052556198120117185	1.0031099853515626	0.046919998168945314	-0.05833769989013672	0.9846300048828125	0.028238000869750975	-0.06736489868164063	0.9702379760742188	-0.0048928499221801754	-0.06762560272216797	0.99472998046875	0.03925450134277344	-0.040211299896240234	1.0052000122070313	0.04507389831542969	-0.03931890106201172	0.9859459838867187	0.025848400115966796	-0.043061901092529296	0.964302001953125	-0.013106800079345704	-0.044350799560546876	0.9867930297851563	0.03428839874267578	-0.025016899108886718	1.0103900146484375	0.04214059829711914	-0.022248800277709962	0.992239990234375	0.02661199951171875	-0.019692800521850587	0.9701890258789062	-0.011745400428771972	-0.01961870002746582	0.9893759765625	0.02884869956970215	-0.008407600402832031	1.0075599975585938	0.03304130172729492	-0.002122900009155273	0.9909970092773438	0.020012500762939454	0.002922549962997436	0.9794019775390626	-0.005905900001525879	0.001272400021553039	0.997541015625	-0.02045759963989258	-0.021521900177001955	1.0703499755859376
60	2.0	0.04602880096435547	-0.12610800170898437	1.012969970703125	0.038909999847412106	-0.10077300262451172	1.0235499877929688	0.0196210994720459	-0.08397930145263671	1.0432900390625	0.007938889980316163	-0.04865610122680664	1.0539000244140626	0.061546600341796875	-0.052903701782226566	0.9921699829101562	0.050304401397705076	-0.06014070129394531	0.9765120239257813	0.028542200088500978	-0.06849870300292969	0.96847998046875	-0.0029669899940490724	-0.06733689880371094	0.9956430053710937	0.04900830078125	-0.03922010040283203	0.9981690063476563	0.048884899139404296	-0.03920759963989258	0.977697998046875	0.025272600173950194	-0.043415699005126956	0.961135986328125	-0.011187399864196777	-0.043932498931884764	0.9874979858398437	0.04522890090942383	-0.02396419906616211	1.0054000244140624	0.04696829986572266	-0.02127560043334961	0.9866480102539062	0.026785900115966797	-0.019273099899291993	0.9674630126953125	-0.010018600463867187	-0.019400800704956055	0.990343994140625	0.03505780029296875	-0.00646028995513916	1.0034299926757813	0.0346077995300293	5.5853798985481e-05	0.9871619873046875	0.019314300537109374	0.004626560211181641	0.978156005859375	-0.004640039920806885	0.0017715599536895753	0.997718017578125	-0.02037700080871582	-0.021085100173950197	1.07077001953125
61	2.033333333333333	0.04634889984130859	-0.1256330032348633	1.0131199951171874	0.039385398864746096	-0.10036699676513672	1.0239500122070313	0.019750699996948243	-0.08369080352783204	1.04375	0.007958829879760742	-0.048433300018310546	1.0543299560546875	0.06736479949951171	-0.05582009887695313	0.9805339965820312	0.05114870071411133	-0.06308290100097656	0.969697998046875	0.027811800003051758	-0.07007230377197265	0.967041015625	-0.001889250040054321	-0.06715599822998047	0.9966099853515625	0.059438098907470704	-0.03903150177001953	0.9889219970703125	0.05145949935913086	-0.04018939971923828	0.9696849975585937	0.024128599166870116	-0.04440380096435547	0.9585999755859375	-0.009681559562683106	-0.043832599639892576	0.9885059814453125	0.056212600708007814	-0.023604700088500977	0.997166015625	0.05107830047607422	-0.020799900054931642	0.9790250244140625	0.02638050079345703	-0.01909860038757324	0.9648060302734375	-0.0083091402053833	-0.019600099563598632	0.9905449829101562	0.04133879852294922	-0.005063210010528564	0.99877099609375	0.03601559829711914	0.001714300036430358	0.98318798828125	0.018876399993896485	0.005550189971923828	0.9769429931640625	-0.003273260116577148	0.001885560035705566	0.9979749755859375	-0.020312400817871095	-0.02079010009765625	1.0711400146484376
62	2.066666666666667	0.04663560104370117	-0.12485900115966797	1.0128599853515625	0.03962939834594727	-0.09990899658203126	1.0237000122070312	0.019983800888061523	-0.083393798828125	1.0436700439453126	0.007861790180206298	-0.048197200775146484	1.0544000244140626	0.07040280151367187	-0.05924420166015625	0.9708729858398437	0.051196300506591796	-0.06592949676513672	0.9646480102539062	0.02736899948120117	-0.07117749786376953	0.9665579833984375	-0.0007552829980850221	-0.06705719757080078	0.9972009887695312	0.06711239624023438	-0.039175399780273436	0.97839501953125	0.052903598785400394	-0.04139929962158203	0.96235302734375	0.02360409927368164	-0.045265201568603516	0.9572219848632812	-0.008301580429077148	-0.04367850112915039	0.9889940185546875	0.06483769989013671	-0.022967899322509765	0.987302001953125	0.05373139953613281	-0.020529800415039063	0.9715139770507812	0.026061500549316406	-0.019245500564575194	0.9625859985351563	-0.006857769966125488	-0.019726600646972656	0.9908109741210938	0.04674179840087891	-0.003803430080413818	0.99347900390625	0.03712459945678711	0.002913219928741455	0.9801749877929687	0.018949899673461914	0.006098259925842285	0.976218017578125	-0.002313800096511841	0.001800740003585815	0.9981849975585938	-0.020330799102783202	-0.02046229934692383	1.071010009765625
63	2.1	0.048292701721191406	-0.12345500183105469	1.0126699829101562	0.04076419830322266	-0.09870069885253906	1.023780029296875	0.020771299362182617	-0.08261630249023437	1.04381005859375	0.008342300415039063	-0.04773239898681641	1.0544000244140626	0.0712947998046875	-0.06305690002441407	0.9623880004882812	0.05076729965209961	-0.06854440307617188	0.9605280151367187	0.027111799240112304	-0.07235070037841797	0.9660590209960938	0.000759382009506225	-0.06692120361328124	0.9978170166015625	0.07167630004882812	-0.04006320190429687	0.9668040161132813	0.053025001525878905	-0.04269409942626953	0.9555609741210938	0.02309880065917969	-0.046000099182128905	0.9558049926757812	-0.0070309901237487794	-0.0436875991821289	0.9893200073242188	0.07010780334472656	-0.022151599884033202	0.97564697265625	0.05473740005493164	-0.020125699996948243	0.9639550170898438	0.02543239974975586	-0.019280000686645506	0.9608270263671875	-0.0054874601364135744	-0.019922500610351564	0.9911829833984375	0.05084429931640625	-0.002042170047760009	0.9880800170898437	0.038222801208496096	0.004018720149993896	0.977635986328125	0.01928140068054199	0.0065171499252319335	0.9757020263671875	-0.001015900015830993	0.001615489959716796	0.9983369750976563	-0.020155099868774413	-0.020302799224853514	1.0711700439453125
64	2.1333333333333333	0.04860689926147461	-0.12304299926757813	1.0123800048828124	0.041378700256347656	-0.09828610229492188	1.023530029296875	0.02133720016479492	-0.08204810333251954	1.0436400146484375	0.008650650024414062	-0.04732300186157227	1.0543599853515624	0.07068849945068359	-0.0666072006225586	0.954905029296875	0.04977239990234375	-0.07088729858398438	0.9570360107421875	0.026839099884033202	-0.07320330047607422	0.9656190185546875	0.0018625199794769281	-0.06666549682617187	0.9982789916992187	0.07308260345458985	-0.041499000549316406	0.955041015625	0.051903701782226565	-0.04395059967041016	0.9498389892578125	0.022221500396728516	-0.046543201446533206	0.9549110107421875	-0.005561560153961182	-0.04347779846191406	0.989677978515625	0.0731260986328125	-0.021326200485229492	0.9640260009765625	0.0544109992980957	-0.01963870048522949	0.9573040161132812	0.024916500091552735	-0.019166500091552734	0.9598270263671875	-0.0041013298034667965	-0.019959699630737304	0.9915029907226562	0.053548698425292966	-7.519719749689101e-05	0.9826799926757812	0.03846829986572266	0.005234839916229248	0.9748660278320312	0.01936389923095703	0.0070089797973632816	0.9753099975585937	7.299000024795501e-05	0.001520959973335266	0.9985579833984375	-0.020164899826049805	-0.020260599136352538	1.0716300048828125
